<mxfile host="app.diagrams.net" modified="2024-05-14T02:55:04.840Z" agent="Mozilla/5.0 (Windows NT 10.0; Win64; x64) AppleWebKit/537.36 (KHTML, like Gecko) Chrome/124.0.0.0 Safari/537.36" etag="nDVYUmstZ-Yp2j7wG5TD" version="24.4.0" type="device">
  <diagram name="Page-1" id="S7jkVeKXbSkZLnjxhSJ5">
    <mxGraphModel dx="794" dy="420" grid="1" gridSize="10" guides="1" tooltips="1" connect="1" arrows="1" fold="1" page="1" pageScale="1" pageWidth="827" pageHeight="1169" math="0" shadow="0">
      <root>
        <mxCell id="0" />
        <mxCell id="1" parent="0" />
        <mxCell id="DICbCfhamlNX8hL6OP8d-1" value="User" style="rounded=1;whiteSpace=wrap;html=1;fillColor=#d5e8d4;strokeColor=#82b366;" vertex="1" parent="1">
          <mxGeometry x="330" y="80" width="120" height="60" as="geometry" />
        </mxCell>
        <mxCell id="DICbCfhamlNX8hL6OP8d-2" value="Upload&lt;div&gt;Gambar&lt;/div&gt;" style="ellipse;whiteSpace=wrap;html=1;fillColor=#fff2cc;strokeColor=#d6b656;" vertex="1" parent="1">
          <mxGeometry x="580" y="70" width="120" height="80" as="geometry" />
        </mxCell>
        <mxCell id="DICbCfhamlNX8hL6OP8d-3" value="Upload&lt;div&gt;Komentar&lt;/div&gt;" style="ellipse;whiteSpace=wrap;html=1;fillColor=#fff2cc;strokeColor=#d6b656;" vertex="1" parent="1">
          <mxGeometry x="80" y="70" width="120" height="80" as="geometry" />
        </mxCell>
        <mxCell id="DICbCfhamlNX8hL6OP8d-4" value="" style="endArrow=none;html=1;rounded=0;startArrow=classic;startFill=1;endFill=0;" edge="1" parent="1">
          <mxGeometry width="50" height="50" relative="1" as="geometry">
            <mxPoint x="210" y="90" as="sourcePoint" />
            <mxPoint x="320" y="90" as="targetPoint" />
          </mxGeometry>
        </mxCell>
        <mxCell id="DICbCfhamlNX8hL6OP8d-5" value="" style="endArrow=none;html=1;rounded=0;startArrow=classic;startFill=1;endFill=0;" edge="1" parent="1">
          <mxGeometry width="50" height="50" relative="1" as="geometry">
            <mxPoint x="210" y="109.83" as="sourcePoint" />
            <mxPoint x="320" y="109.83" as="targetPoint" />
          </mxGeometry>
        </mxCell>
        <mxCell id="DICbCfhamlNX8hL6OP8d-6" value="" style="endArrow=classic;html=1;rounded=0;" edge="1" parent="1">
          <mxGeometry width="50" height="50" relative="1" as="geometry">
            <mxPoint x="210" y="130" as="sourcePoint" />
            <mxPoint x="320" y="130" as="targetPoint" />
          </mxGeometry>
        </mxCell>
        <mxCell id="DICbCfhamlNX8hL6OP8d-7" value="" style="endArrow=classic;html=1;rounded=0;" edge="1" parent="1">
          <mxGeometry width="50" height="50" relative="1" as="geometry">
            <mxPoint x="460" y="89.83" as="sourcePoint" />
            <mxPoint x="570" y="89.83" as="targetPoint" />
          </mxGeometry>
        </mxCell>
        <mxCell id="DICbCfhamlNX8hL6OP8d-8" value="" style="endArrow=classic;html=1;rounded=0;" edge="1" parent="1">
          <mxGeometry width="50" height="50" relative="1" as="geometry">
            <mxPoint x="460" y="109.66" as="sourcePoint" />
            <mxPoint x="570" y="109.66" as="targetPoint" />
          </mxGeometry>
        </mxCell>
        <mxCell id="DICbCfhamlNX8hL6OP8d-9" value="" style="endArrow=none;html=1;rounded=0;startArrow=classic;startFill=1;endFill=0;" edge="1" parent="1">
          <mxGeometry width="50" height="50" relative="1" as="geometry">
            <mxPoint x="460" y="129.83" as="sourcePoint" />
            <mxPoint x="570" y="129.83" as="targetPoint" />
          </mxGeometry>
        </mxCell>
        <mxCell id="DICbCfhamlNX8hL6OP8d-10" value="Mengunggah" style="text;html=1;align=center;verticalAlign=middle;whiteSpace=wrap;rounded=0;" vertex="1" parent="1">
          <mxGeometry x="490" y="70" width="50" height="20" as="geometry" />
        </mxCell>
        <mxCell id="DICbCfhamlNX8hL6OP8d-11" value="Menghapus" style="text;html=1;align=center;verticalAlign=middle;whiteSpace=wrap;rounded=0;" vertex="1" parent="1">
          <mxGeometry x="490" y="90" width="50" height="20" as="geometry" />
        </mxCell>
        <mxCell id="DICbCfhamlNX8hL6OP8d-13" value="Info Gambar" style="text;html=1;align=center;verticalAlign=middle;whiteSpace=wrap;rounded=0;" vertex="1" parent="1">
          <mxGeometry x="470" y="110" width="90" height="20" as="geometry" />
        </mxCell>
        <mxCell id="DICbCfhamlNX8hL6OP8d-18" value="Mengunggah" style="text;html=1;align=center;verticalAlign=middle;whiteSpace=wrap;rounded=0;" vertex="1" parent="1">
          <mxGeometry x="240" y="70" width="50" height="20" as="geometry" />
        </mxCell>
        <mxCell id="DICbCfhamlNX8hL6OP8d-19" value="Menghapus" style="text;html=1;align=center;verticalAlign=middle;whiteSpace=wrap;rounded=0;" vertex="1" parent="1">
          <mxGeometry x="240" y="90" width="50" height="20" as="geometry" />
        </mxCell>
        <mxCell id="DICbCfhamlNX8hL6OP8d-20" value="Info Komentar" style="text;html=1;align=center;verticalAlign=middle;whiteSpace=wrap;rounded=0;" vertex="1" parent="1">
          <mxGeometry x="220" y="110" width="90" height="20" as="geometry" />
        </mxCell>
      </root>
    </mxGraphModel>
  </diagram>
</mxfile>
